<svg xmlns="http://www.w3.org/2000/svg" width="354.77" height="200.288" viewBox="0 0 354.77 200.288"><defs><style>.a{fill:#fff;}</style></defs><g transform="translate(-1403.269 -1818.149)"><path class="a" d="M1722.787,1953.364c-9.63-3.535-19.262-3.883-28.927-.1a31.186,31.186,0,0,0-9.1,5.832c-1.013.884-2.072,2.154-3.52,1.087-1.485-1.094-.463-2.515.064-3.692a57.13,57.13,0,0,0,3.083-8.688c2.149-8.071-.865-15.137-4.052-22.214-2.909-6.46-7.69-11.858-10.3-18.871-4.9,8.1-10.859,14.954-15.665,22.618a26.594,26.594,0,0,0-3.78,12.349,75.963,75.963,0,0,0,.254,14.393c.131,1.143.538,2.464-.651,3.26s-2.276-.136-3.268-.661a19.973,19.973,0,0,1-3.882-2.486c-8.029-7.049-17.01-6.594-26.295-3.353-4.309,1.5-7.684,4.76-11.787,6.691-.734.346-1.46.712-2.19,1.068-.747-1.17-1.973-.647-2.993-.85,4.737-3.172,8.842-7.38,14.1-9.644,10.395-4.472,20.624-4.28,30.288,2.277.644.437,1.316,1.281,2.16.819.886-.486.38-1.473.306-2.227-.573-5.887.6-11.557,2.232-17.137,2.013-6.9,6.7-12.14,11.156-17.527,3.6-4.354,8.161-8.123,9.179-14.177.1-.595.463-1.361,1.241-1.163.678.173.739.965.821,1.6a24.38,24.38,0,0,0,5.015,11.308c2.038,2.779,4.148,5.511,6.062,8.373,5.973,8.931,9.323,18.423,5.891,29.267-.025.079.187.233.289.351,11.626-7.094,23.325-7.638,35.121-.446C1724.564,1952.6,1724.641,1953.412,1722.787,1953.364Z" transform="translate(-89.45 -37.685)"/><path class="a" d="M1426.2,2114.793c0-7.965.022-15.649-.018-23.334-.008-1.573-.4-3.08,2.116-2.985,3.157.121,4.229.8,4.041,3.354-.775,10.511-.47,21.03-.381,31.551.01,1.213,1.242,3.166-.961,3.645-2.079.452-4.213.235-5.5-1.93q-3.258-5.5-6.485-11.01c-3.085-5.291-6.149-10.594-9.753-15.765-.034.754-.12,1.511-.1,2.263.28,8.24,0,16.507,1.08,24.71.127.962.063,1.573-1.069,1.689-1.8.185-3.708.635-4.786-1.41a4.727,4.727,0,0,1-.332-2.129c0-11.143.864-22.305-.766-33.41-.14-.953.291-1.215,1.134-1.431a6.714,6.714,0,0,1,7.383,2.751,170.511,170.511,0,0,1,12.094,19.349Z" transform="translate(0 -122.997)"/><path class="a" d="M1592.7,1864.988a35.514,35.514,0,0,0-.3-11.356c-.127-.788-.363-1.8.405-2.281.885-.556,1.521.375,2.018.921,3.754,4.123,8.182,4.093,12.954,2.24,1.943-.755,3.955-1.352,5.843-2.223a15.2,15.2,0,0,1,13.4.144c.806.375,1.727,1,1.97-.6,1.05-6.914,6.058-10.434,11.645-13.36a38.988,38.988,0,0,1,9.7-3.468c8.211-1.814,13.878-6.365,16.143-14.712.214-.786.089-2.192,1.222-2.139,1.078.05,1.017,1.4,1.061,2.226.416,7.718,5.914,11.753,12.961,12.531,3.949.436,7.945.69,11.794,1.9a15.237,15.237,0,0,1,10.338,14.933c-.047.9-.049,1.812-.072,2.717-.138.961.338,2.053-.508,3.028-1.084-1.156-.1-2.614-.95-3.617-.88-7.954-5.615-12.44-13.066-14.421a34.494,34.494,0,0,0-4.545-.781c-6.212-.784-11.781-2.846-15.812-7.938-.923-1.166-1.613-.9-2.275.165-2.755,4.438-7.127,6.1-11.929,7.261-6.185,1.495-12.185,3.509-17.164,7.748-5.82,4.956-7.729,13.278-4.508,19.846,0,1.011-.2,1.846-1.5,1.722a41.386,41.386,0,0,1-2.628-8.192,3.792,3.792,0,0,0-2.982-2.814,14.758,14.758,0,0,0-12.237,1.714,16.02,16.02,0,0,1-15.1,1.117c-2.554-1.057-3.538-.325-3.43,2.49a11.418,11.418,0,0,1-1.449,6.777C1592.674,1866.489,1592.723,1865.717,1592.7,1864.988Z" transform="translate(-86.032)"/><path class="a" d="M1981.661,2100.829c-.182,6.421-.781,12.854.075,19.27.126.942,1.072,2.309-.177,2.94-1.467.741-3.5,1.017-4.654-.141-1.488-1.5-2.44-.921-3.865-.188-5.495,2.827-11.769.378-14.592-5.765a16.925,16.925,0,0,1-.233-14.229c2.541-5.911,8.371-8.754,14.478-6.822,2.605.824,2.838-.041,2.676-2.21-.251-3.34-.351-6.692-.468-10.04-.048-1.379-.939-3.136,1.717-3.3,3.015-.18,5,.777,5.133,3.1.138,2.435-.069,4.888-.085,7.333C1981.644,2094.131,1981.661,2097.48,1981.661,2100.829Zm-6.327,8.384h-.05c0-2.267.006-4.533,0-6.8,0-.808.025-1.558-.9-2.072a7.926,7.926,0,0,0-9.029,1.45c-3.412,3.9-2.65,13.221,1.354,16.524,1.91,1.575,3.981,1.455,6.133.583,2.063-.836,2.773-2.323,2.535-4.52A48.136,48.136,0,0,1,1975.334,2109.213Z" transform="translate(-251.943 -119.34)"/><path class="a" d="M1682.031,2127.715a3.57,3.57,0,0,1-3.773-2.507c-.909-2.559-1.912-5.088-2.73-7.676-.448-1.418-1.106-2.059-2.69-1.97a44.936,44.936,0,0,1-7.609-.017c-2.737-.314-4.163.625-4.886,3.251-.695,2.524-1.876,4.917-2.527,7.449-.612,2.382-2.053,2.09-3.715,1.6-1.788-.522-2.563-1.517-1.762-3.448,2.6-6.272,5.212-12.542,7.687-18.864,1.78-4.548,3.348-9.179,5.014-13.772.492-1.358.391-3.053,2.734-2.964,2.293.087,4.067.46,4.864,2.931q2.419,7.493,5,14.933c2.047,5.9,4.381,11.7,6.9,17.419C1685.732,2126.808,1685.14,2127.695,1682.031,2127.715Zm-18.477-16.375c2.906,0,5.512-.009,8.117,0,1.1.005,1.42-.417,1.059-1.5-1.362-4.1-2.671-8.212-4.167-12.838Z" transform="translate(-113.23 -123.197)"/><path class="a" d="M2034.669,2122.446c-.035,3.812-.162,7.646.743,11.373.387,1.594-.291,1.88-1.522,2.088-1.581.268-3.285.378-4.315-.9-.965-1.2-1.6-1.2-2.7-.38a10.527,10.527,0,0,1-5.372,1.738,7.466,7.466,0,0,1-8.436-6.338c-.85-4.531,1.044-7.766,5.326-9.035a28.655,28.655,0,0,1,8.072-1.021c1.576-.007,2.137-.6,1.946-2.1-.268-2.113.1-4.533-2.518-5.535-2.327-.89-4.975.21-6.816,2.73a3.213,3.213,0,0,1-5,.549c-1.627-1.537-1.1-3.1.218-4.526,3.385-3.657,13.648-4.5,17.624-1.416a7.259,7.259,0,0,1,2.735,5.706C2034.745,2117.727,2034.669,2120.088,2034.669,2122.446Zm-6.427,4.743c-.006-3.887-.007-3.892-3.836-3.127-.792.159-1.583.341-2.361.558-2.4.672-3.053,2.395-2.563,4.613.481,2.176,2.092,3.089,4.2,3.079C2026.919,2132.3,2028.248,2130.754,2028.242,2127.189Z" transform="translate(-277.481 -131.836)"/><path class="a" d="M1603.7,2123.548c.035,3.166-.35,6.383.526,9.469.7,2.456-.526,3.051-2.518,3.025-.883-.012-2.243-.037-2.561-.56-1.544-2.53-2.962-.908-4.551-.186-3.116,1.416-6.317,1.75-9.36-.154-3-1.88-3.46-4.873-3.243-8.116a6.067,6.067,0,0,1,4.078-5.568,23.885,23.885,0,0,1,9.072-1.447c1.846-.016,2.433-.741,2.2-2.438-.281-2.029-.075-4.324-2.555-5.236a5.767,5.767,0,0,0-6.621,2.554c-.838,1.308-1.62,2.108-3.229,1.613-1.241-.382-2.477-.795-2.805-2.254-.367-1.632.481-2.8,1.664-3.755,3.5-2.838,12.228-3.584,16.141-1.415,2.925,1.622,3.554,4.441,3.734,7.4C1603.812,2118.827,1603.7,2121.191,1603.7,2123.548Zm-6.445,3.7c0-3.943,0-3.926-3.858-3.185a11.723,11.723,0,0,0-3.372.994,3.154,3.154,0,0,0-1.8,3.594,4.077,4.077,0,0,0,4.562,3.679C1595.961,2132.146,1597.258,2130.671,1597.254,2127.253Z" transform="translate(-81.332 -131.856)"/><path class="a" d="M1543.8,2128.491c2.446-6.343,4.125-12.138,4.375-18.245.071-1.739.533-2.484,2.322-2.4,1.808.083,3.577.055,3.685,2.533a17.693,17.693,0,0,1-1.031,5.591,108.891,108.891,0,0,1-14.014,30.8,8.568,8.568,0,0,1-2.95,3.127c-1.918,1.009-3.3-.013-4.546-1.325-1.483-1.566.23-2.208,1-2.979,7.8-7.753,7.954-8.2,4.126-18.594-2-5.433-3.819-10.968-7.159-15.8-.6-.87-.51-1.344.4-1.942,2.2-1.44,5.452-1.854,6.923,1.665C1539.274,2116.51,1541.507,2122.133,1543.8,2128.491Z" transform="translate(-57.337 -131.863)"/><path class="a" d="M1724.315,2128.268a51.532,51.532,0,0,0,4.4-17.837c.123-2.4.983-2.657,2.868-2.613,2.09.049,3.344.822,3.124,3.078a43.34,43.34,0,0,1-2.448,9.725,105.33,105.33,0,0,1-13.376,27.2c-2.049,2.9-4.219,3.187-6.317,1.139-.968-.944-1.39-1.645-.04-2.811a42.733,42.733,0,0,0,6.612-7.9,4.447,4.447,0,0,0,.589-4.554c-2.891-7.7-5.154-15.66-9.66-22.667-.379-.589-.606-.942.092-1.563,2.535-2.258,5.806-1.758,7.2,1.328,2.275,5.032,4.332,10.158,6.117,15.388C1723.679,2126.769,1723.94,2127.336,1724.315,2128.268Z" transform="translate(-139.489 -131.852)"/><path class="a" d="M1764.725,2120.837c.068-3.532.306-7.082-.449-10.572-.22-1.017.066-1.5,1.144-1.648,3.676-.518,6.1-.033,5.806,4.289-.3,4.43-.248,8.887-.288,13.332-.02,2.227.172,4.5,2.5,5.617,2.4,1.151,4.576.173,6.646-1.128a2.842,2.842,0,0,0,1.507-2.67c-.117-5.623-.119-11.248-.3-16.868-.048-1.508-.215-2.84,1.809-2.766,1.909.069,4.356-.467,4.666,2.413a43.986,43.986,0,0,1-.1,6.25,99.615,99.615,0,0,0,.417,15.762c.125,1.018,1.329,2.347-.337,3.072-1.553.675-3.578.911-4.565-.46-1.327-1.844-2.28-1.236-3.633-.372a11.911,11.911,0,0,1-6.244,1.64c-5.465.136-8.485-2.812-8.572-8.27C1764.692,2125.918,1764.725,2123.377,1764.725,2120.837Z" transform="translate(-164.295 -132.128)"/><path class="a" d="M1915.524,2124.521c-.88.367-2.543-1.059-3.181.468-.568,1.362.43,2.8,1.2,4.021a7.011,7.011,0,0,0,10.257,1.649c1.622-1.315,2.805-1.548,3.837.268,1.072,1.887.259,3.4-1.621,4.163a16.093,16.093,0,0,1-11.432.509c-7.635-2.542-11.072-10.4-8.309-18.917,2.158-6.653,9.85-10.475,16.745-8.319a8.165,8.165,0,0,1,6.06,8.329c-.166,3.944-2.149,6.115-6.535,7.146A35.782,35.782,0,0,1,1915.524,2124.521Zm-.417-3.99a13.409,13.409,0,0,0,5.052-.8,3.735,3.735,0,0,0,2.428-4.576c-.452-2.209-2.035-3.1-4.165-3.1-2.74-.009-4.913,1.746-5.94,4.727C1911.229,2120.413,1911.364,2120.605,1915.107,2120.531Z" transform="translate(-228.532 -131.827)"/><path class="a" d="M1776.695,2030.076c8.426.939,15.041-2.917,21.056-8.126,5.258-4.553,10.343-9.312,16.749-12.277,1.744-.807,1.34-1.652.092-2.488-1.724-1.156-3.488-2.251-5.235-3.371.516-.968,1.489-.933,2.378-1.08,3.109,1.453,6.067,3.235,9.418,4.168.995.277,2.6.342,2.664,1.481.075,1.448-1.692,1.343-2.685,1.729-8.814,3.427-15.769,9.5-22.615,15.735-1.067.972-.7,1.412.543,1.72a47.113,47.113,0,0,1,9.724,4.146,35.152,35.152,0,0,0,11.077,3.53c7.029.968,15.753-.645,19.438-10.586a25.317,25.317,0,0,1,9.74-12.069l.2.9c-3.971,3.765-6.406,8.561-8.528,13.446-3.533,8.132-10.059,10.908-18.29,10.989a23.966,23.966,0,0,1-10.456-2.5,42.233,42.233,0,0,0-24.589-3.69,29.579,29.579,0,0,1-12.373-.6C1775.1,2030.022,1775.969,2030.166,1776.695,2030.076Z" transform="translate(-169.208 -84.021)"/><path class="a" d="M1791.4,1878.79c.849,1-.134,2.46.95,3.616.846-.975.371-2.067.508-3.028.672.552,1.124,1.182,2.228.336,4.286-3.283,8.954-2.853,13.652-.977a36.048,36.048,0,0,1,6.483,3.4c5.354,3.53,11,3.749,16.862,1.467.337-.131.649-.329.989-.449.8-.283,1.654-.468,2.21.354.591.874.009,1.546-.642,2.1a14.156,14.156,0,0,0-3.171,4.032c-1.978,3.551-2.4,7.167-.481,10.89.207.4.377.822.572,1.231,3.079,6.474,5.013,7.637,1.11,17.561,9.518.163,15.7,4.987,19.111,13.661-.074.833-.236,1.71.959,1.9a.375.375,0,0,1,.148.354c-.351.7-.989.74-1.652.726-1.376-1.8-2.7-3.641-4.138-5.387-6.08-7.373-11.06-9.1-18.945-6.628-.769.05-1.463-.011-1.513-1.024,5.392-5.418,6.909-11.878,3.583-18.193-2.888-5.482-4.344-10.719-.719-16.355.665-1.034.22-1.467-.927-1.437-.809.021-1.62-.039-2.43-.072-3.44-.139-6.925.742-10.281-.97-3.381-1.725-6.867-3.272-10.4-4.673-4.689-1.862-8.1-.767-11.271,3.223a19,19,0,0,0-2.373,4.552,6.386,6.386,0,0,1-3.889,4.1C1789.731,1888.032,1792.116,1883.722,1791.4,1878.79Z" transform="translate(-175.098 -26.919)"/><path class="a" d="M1700.056,2039.82c-2.939-1.866-5.287-2.882-8.026-1.588-2.6,1.226-3.769,3.439-2.84,5.648a4.727,4.727,0,0,0,6.5,2.043,19.466,19.466,0,0,0,4.581-3.81c3.417-3.4,6.9-6.7,11.651-8.226,4.528-1.459,8.427-.049,11.895,2.767,2.208,1.792,2.376,4.841.763,7.716-3.2,5.7-12.207,7.465-17.148,3.328a6.025,6.025,0,0,1-1.145-1.481,1.079,1.079,0,0,1,.094-1.473c.434-.343.785.185,1.172.38,3.589,1.8,7.174,2.3,10.678-.2,2.689-1.922,3.5-4.471,2.195-6.77a5.646,5.646,0,0,0-7.343-2.156c-4.567,2.192-8.136,5.727-11.711,9.192a14.568,14.568,0,0,1-12.107,4.336c-3.351-.321-5.814-2.017-6.67-4.711-.99-3.116.641-5.282,2.736-7.139,4.246-3.761,11.476-3.473,14.112.464A11.17,11.17,0,0,1,1700.056,2039.82Z" transform="translate(-127.012 -97.936)"/><path class="a" d="M1867.115,2128.584a41.338,41.338,0,0,0,4.644-17.966c.021-2.745,1.25-2.882,3.275-2.782,2.287.114,3.071,1.409,2.726,3.438a57.163,57.163,0,0,1-8.218,21.675,6.4,6.4,0,0,1-3.248,2.77c-2.818.983-4.1.3-4.856-2.528-2.023-7.614-4.053-15.233-8.042-22.127-.56-.968-.3-1.4.5-1.962,2.771-1.951,5.37-1.4,6.57,1.765,1.99,5.241,3.746,10.57,5.579,15.869A2.882,2.882,0,0,0,1867.115,2128.584Z" transform="translate(-204.757 -131.852)"/><path class="a" d="M1494.465,2116.641c0-1.27,0-2.539,0-3.809.009-4.255.01-4.272-4.123-4.55-.683-.046-1.279.011-1.3-.916-.029-1.283-.171-3.122,1.353-3.124,3.955,0,4.6-1.912,3.732-5.177-.073-.276.131-.869.334-.937a7.755,7.755,0,0,1,5.045.012c1.361.46,1.617,1.656,1.414,2.9-.368,2.26.451,3.164,2.766,2.8a26.871,26.871,0,0,1,3.531-.129c1-.022,2.3-.677,2.5,1.105.168,1.531-.262,2.81-1.943,3.052a24.7,24.7,0,0,1-4.872.224c-1.7-.095-2.493.319-2.4,2.213.219,4.431-.428,8.893.314,13.3.687,4.085,2.609,4.959,6.249,2.975.55-.3.973-.841,1.618-.122a2.709,2.709,0,0,1,.814,2.718,3.028,3.028,0,0,1-1.81,1.887,9.078,9.078,0,0,1-13.145-7.63c-.16-2.256-.025-4.532-.025-6.8Z" transform="translate(-39.035 -127.254)"/><path class="a" d="M1592.039,2008.885c1.021.2,2.247-.32,2.994.85-1.469,1.438-4.621,1.545-4.694,3.5-.044,1.164,2.82,2.4,4.328,3.668a34.4,34.4,0,0,1,3.406,3.115c8.2,9,18.811,11.685,30.442,11.767,1.242.009,2.484,0,4.459,0a20.315,20.315,0,0,1-9.795,3.923c-3.2.564-6.415.881-9.484-.865-1.248-.71-2.638.083-3.95.335a1.218,1.218,0,0,1-.683-1.165c.266-1.141.259-1.13-1.6-2.415-8.01-5.53-14.845-12.646-23.445-17.387-.611-.337-1.31-.84-1.236-1.657.089-1,1.018-1.208,1.786-1.377A40.332,40.332,0,0,0,1592.039,2008.885Z" transform="translate(-81.708 -86.821)"/><path class="a" d="M1827.175,2111.319c2.25-1.994,4.124-3.79,6.968-3.44,1.765.217,3.114,1.067,2.434,3.015-.5,1.443-.451,3.847-3.435,2.829a5.075,5.075,0,0,0-6.577,4.775c-.114,5.24-.4,10.5,1.011,15.648.135.493.442,1.124-.281,1.4a6.453,6.453,0,0,1-5.026.1c-1.479-.633-1.782-1.923-1.794-3.355-.06-7.419.3-14.847-.448-22.25-.115-1.135.258-1.606,1.443-1.7C1823.931,2108.144,1826.274,2108.029,1827.175,2111.319Z" transform="translate(-189.695 -131.862)"/><path class="a" d="M1532.727,2004.248a3.825,3.825,0,0,1-1.65-1.726q-.031-.756-.062-1.512l1.065-.017c.092.524.287.95.913.97,6.817,4.089,8.745,10.771,9.285,18.027.366,4.929,2.765,8.256,6.918,10.61,4.843,2.745,10.163,3.689,15.591,4.27,2.364,2.082,4.723.623,7.085-.006l1.635-.106c.81.169,1.953-.37,2.183,1.029-2.888.649-5.762,1.375-8.668,1.932a31.318,31.318,0,0,1-20.755-2.961c-4.058-2.087-6.019-5.514-6.53-9.961a92.884,92.884,0,0,0-1.558-11.27,20.594,20.594,0,0,0-3.854-7.682c-.06-.645.161-1.564-1.055-1.075l-.033-.034Z" transform="translate(-58.149 -83.228)"/><path class="a" d="M1719.431,2004.619c3.531-.016,5.661,2.439,4.778,5.857-1.117,4.328-3.872,7.915-5.839,11.86-.728,1.46-2.077,1.069-3.266.268-3.025-2.037-5.543-8.525-4.665-12.082C1711.342,2006.856,1714.718,2004.64,1719.431,2004.619Z" transform="translate(-139.739 -84.879)"/><path class="a" d="M1476.057,2119.449a44.894,44.894,0,0,0,.848,14.833c.319,1.32-.044,1.721-1.285,1.984-3.835.812-5.777-.6-5.854-4.5-.142-7.143.4-14.3-.38-21.428-.132-1.206.337-1.586,1.458-1.695,3.748-.363,6.492.515,5.529,5.124A36.211,36.211,0,0,0,1476.057,2119.449Z" transform="translate(-30.086 -132.195)"/><path class="a" d="M1546.89,1960.133c4.384-8.007,9.892-14.6,20.076-15.654-5.581-5.594-3.46-11.5-1.287-17.406.7.083.915.562.969,1.175a4.594,4.594,0,0,1-.532,2.6c-1.091,2.374-.568,4.577.613,6.836,1.844,3.526,4.768,5.862,8.017,7.912-1.029,2.148-2.98.555-4.407,1.087l-1-.009c-1.487.133-3.153-.615-4.362.885-.584.242-1.171.475-1.75.728-6.155,2.685-10.653,7.306-14.63,12.533C1547.943,1960.811,1547.271,1960.834,1546.89,1960.133Z" transform="translate(-65.374 -49.581)"/><path class="a" d="M1725.01,1977.055c-.332,2.774-.791,6.112-3.3,8.674-1.9,1.945-3.673,1.794-5.128-.517a13.28,13.28,0,0,1-2.1-9.855c.591-3.013,3.273-5.182,5.911-4.922C1723.229,1970.714,1725.048,1973.092,1725.01,1977.055Z" transform="translate(-141.556 -69.309)"/><path class="a" d="M1476.087,2093.172a4.063,4.063,0,0,1-4.262,3.957,3.927,3.927,0,0,1-4.081-4.111,4.312,4.312,0,0,1,4.285-4.047A4.106,4.106,0,0,1,1476.087,2093.172Z" transform="translate(-29.346 -123.275)"/><path class="a" d="M1904.125,1984.387c.663.014,1.3-.029,1.652-.726,3.015,5.65,6.207,11.151,11.556,15.024.85.616.989,1.522-.3,2.019-.983-.165-2.373.653-2.692-1.114a1.225,1.225,0,0,0-.462-1.438C1909.112,1994.636,1906.781,1989.4,1904.125,1984.387Z" transform="translate(-227.984 -75.339)"/><path class="a" d="M1582.347,1917.8c-.054-.613-.272-1.092-.969-1.175,2.213-4.122,4.9-8,6.367-12.5.019.729-.031,1.5,1.01,1.577C1586.754,1909.8,1584.945,1914.011,1582.347,1917.8Z" transform="translate(-81.073 -39.133)"/><path class="a" d="M1611.193,2060.371c-.23-1.4-1.373-.859-2.183-1.029,4.127-1.09,8.007-2.861,12-4.334a1.218,1.218,0,0,0,.683,1.165A49,49,0,0,1,1611.193,2060.371Z" transform="translate(-93.651 -107.815)"/><path class="a" d="M1834.748,1998.575c-.89.147-1.862.112-2.378,1.08l-6.812-4.114c1.853.047,1.777-.762.861-1.943A50.9,50.9,0,0,1,1834.748,1998.575Z" transform="translate(-192.221 -79.862)"/><path class="a" d="M1539.948,1987.754c.381.7,1.053.678,1.711.685-1.888,3.055-4.781,4.571-8.168,5.327-.162-1.132-1.132-.909-1.852-1.106C1534.867,1991.8,1538.038,1990.846,1539.948,1987.754Z" transform="translate(-58.432 -77.202)"/><path class="a" d="M1917.424,2012.9c.319,1.767,1.709.95,2.692,1.114-2.984,1.416-6.325,2.049-9.021,4.1-.065-.3-.13-.6-.2-.9C1912.638,2015.115,1915.226,2014.3,1917.424,2012.9Z" transform="translate(-231.068 -88.647)"/><path class="a" d="M1773.157,2051.656c-.726.09-1.6-.054-1.695,1.049-1.1-.323-2.2-.621-3.292-.977-.5-.164-1.09-.427-.91-1.087.2-.726.816-.485,1.316-.339C1770.105,2050.744,1771.63,2051.2,1773.157,2051.656Z" transform="translate(-165.669 -105.601)"/><path class="a" d="M1726.477,1947.236c-.15.9-.553,1.45-1.4,1.414a1.247,1.247,0,0,1-1.272-1.39,1.144,1.144,0,0,1,1.209-1.146A1.4,1.4,0,0,1,1726.477,1947.236Z" transform="translate(-145.904 -58.246)"/><path class="a" d="M1610.9,2016.813a1.2,1.2,0,0,1-1.235,1.189,1.179,1.179,0,0,1-1.242-1.419,1.1,1.1,0,0,1,1.321-1.042A1.271,1.271,0,0,1,1610.9,2016.813Z" transform="translate(-93.38 -89.843)"/><path class="a" d="M1817.505,2016.635a1.247,1.247,0,0,1-1.3,1.123,1.131,1.131,0,0,1-1.2-1.2,1.143,1.143,0,0,1,1.385-1.251A1.275,1.275,0,0,1,1817.505,2016.635Z" transform="translate(-187.42 -89.739)"/><path class="a" d="M1630.978,2021.2a1.074,1.074,0,0,1-1-1.211c0-.727.356-1.2,1.107-1.207a1.127,1.127,0,0,1,1.267,1.333C1632.293,2020.834,1631.821,2021.2,1630.978,2021.2Z" transform="translate(-103.196 -91.327)"/><path class="a" d="M1805.557,2018.179c.731.2,1.343.541,1.244,1.443a1.131,1.131,0,0,1-1.253,1.117,1.227,1.227,0,0,1-1.265-1.406A1.27,1.27,0,0,1,1805.557,2018.179Z" transform="translate(-182.534 -91.051)"/><path class="a" d="M1795.082,2020.156c.7.092,1.232.419,1.227,1.159a1.194,1.194,0,0,1-1.115,1.285,1.177,1.177,0,0,1-1.346-1.3C1793.864,2020.55,1794.392,2020.237,1795.082,2020.156Z" transform="translate(-177.787 -91.951)"/><path class="a" d="M1786.927,2022.392c-.026.841-.381,1.315-1.1,1.384a1.19,1.19,0,0,1-1.4-1.246,1.146,1.146,0,0,1,1.085-1.287A1.288,1.288,0,0,1,1786.927,2022.392Z" transform="translate(-173.498 -92.443)"/><path class="a" d="M1828.173,2014a1.132,1.132,0,0,1-1.283,1.065,1.085,1.085,0,0,1-1.182-1.164,1.234,1.234,0,1,1,2.465.1Z" transform="translate(-192.289 -88.553)"/><path class="a" d="M1671.017,2025.85c-.691-.1-1.226-.412-1.223-1.167a1.167,1.167,0,0,1,1.374-1.27,1.193,1.193,0,0,1,1.09,1.312C1672.23,2025.47,1671.733,2025.807,1671.017,2025.85Z" transform="translate(-121.319 -93.429)"/><path class="a" d="M1724.136,1956.42a1.154,1.154,0,0,1-1.059-1.208,1.058,1.058,0,0,1,1.159-1.15c.8.006,1.382.412,1.262,1.3A1.17,1.17,0,0,1,1724.136,1956.42Z" transform="translate(-145.573 -61.866)"/><path class="a" d="M1776.521,2022.71c.7.056,1.213.382,1.229,1.114a1.084,1.084,0,0,1-1.1,1.215c-.833.04-1.386-.342-1.366-1.217C1775.3,2023.08,1775.836,2022.781,1776.521,2022.71Z" transform="translate(-169.335 -93.114)"/><path class="a" d="M1652.479,2022.045a1.291,1.291,0,0,1,1.248,1.165,1.182,1.182,0,0,1-1.236,1.4,1.231,1.231,0,0,1-1.273-1.395C1651.265,2022.5,1651.823,2022.187,1652.479,2022.045Z" transform="translate(-112.861 -92.811)"/><path class="a" d="M1530.344,1996.759c.72.2,1.69-.026,1.851,1.106l-.138.076a1.106,1.106,0,0,0-.988,1.125l-1.065.017-.986-.026C1528.5,1997.74,1528.845,1996.915,1530.344,1996.759Z" transform="translate(-57.137 -81.301)"/><path class="a" d="M1726.047,1937.123a1.1,1.1,0,0,1,1.077,1.238,1.061,1.061,0,0,1-1.178,1.165,1.078,1.078,0,0,1-1.14-1.218A1.154,1.154,0,0,1,1726.047,1937.123Z" transform="translate(-146.359 -54.155)"/><path class="a" d="M1838.683,2012.051a1.152,1.152,0,0,1-1.176,1.256,1.113,1.113,0,0,1-1.281-1.106,1.129,1.129,0,0,1,1.16-1.236A1.207,1.207,0,0,1,1838.683,2012.051Z" transform="translate(-197.077 -87.767)"/><path class="a" d="M1643.126,2021.895c.051.971-.245,1.493-1.024,1.509-.69.015-1.26-.3-1.278-1.084-.015-.687.243-1.251,1.056-1.292A1.091,1.091,0,0,1,1643.126,2021.895Z" transform="translate(-108.132 -92.347)"/><path class="a" d="M1620.2,2019.187c-.707-.059-1.141-.408-1.074-1.171a1.08,1.08,0,0,1,1.248-1.052,1.016,1.016,0,0,1,1.078,1.195A1.028,1.028,0,0,1,1620.2,2019.187Z" transform="translate(-98.251 -90.498)"/><path class="a" d="M1726.052,1930.991a1.068,1.068,0,0,1-1.115-1.2,1.034,1.034,0,0,1,1.155-1.147,1.174,1.174,0,0,1-.04,2.346Z" transform="translate(-146.42 -50.296)"/><path class="a" d="M1662.158,2022.946a1.029,1.029,0,0,1,1,1.287c-.089.78-.649,1.019-1.347.916a.988.988,0,0,1-.867-1.14C1660.964,2023.224,1661.422,2022.921,1662.158,2022.946Z" transform="translate(-117.29 -93.22)"/><path class="a" d="M1529.206,2000.977l.986.026q.03.756.061,1.512A1.972,1.972,0,0,1,1529.206,2000.977Z" transform="translate(-57.325 -83.221)"/><path class="a" d="M1906.042,1981.422c-1.2-.192-1.033-1.069-.959-1.9A2.922,2.922,0,0,1,1906.042,1981.422Z" transform="translate(-228.396 -73.454)"/><path class="a" d="M1535.156,2007.807c1.215-.489,1,.43,1.055,1.075Z" transform="translate(-60.033 -86.267)"/><path class="a" d="M1534.157,2006.968l.511.485Z" transform="translate(-59.579 -85.948)"/><path class="a" d="M1665.843,1901.852c.837,1.267,1.681,2.531,2.51,3.8.293.45.638.947.078,1.423-.51.434-1.025.172-1.463-.159a7.666,7.666,0,0,1-2.627-3.346C1665.642,1903.7,1665.843,1902.863,1665.843,1901.852Z" transform="translate(-118.837 -38.101)"/><path class="a" d="M1857.872,1962.086l-4.65,2.91c.341-2.021,1.734-2.983,3.137-3.935C1856.409,1962.075,1857.1,1962.136,1857.872,1962.086Z" transform="translate(-204.814 -65.052)"/><path class="a" d="M1593,2063.165l7.085-.006C1597.727,2063.789,1595.367,2065.248,1593,2063.165Z" transform="translate(-86.365 -111.526)"/><path class="a" d="M1533.958,1998.928a1.851,1.851,0,0,0-.075,2.094c-.626-.02-.821-.446-.912-.97A1.1,1.1,0,0,1,1533.958,1998.928Z" transform="translate(-59.039 -82.288)"/><path class="a" d="M1594.337,1961.067c2.1.86,3.868,2.055,4.494,4.538-2.908-1.419-5.711-2.949-8.9-3.451C1591.357,1961.622,1593.308,1963.215,1594.337,1961.067Z" transform="translate(-84.966 -65.055)"/><path class="a" d="M1584.458,1962.986l-4.362.885C1581.305,1962.371,1582.971,1963.119,1584.458,1962.986Z" transform="translate(-80.49 -65.896)"/><path class="a" d="M1827.448,1978.539c-.168.8-.572,1.285-1.3,1.235a1.14,1.14,0,0,1-1.129-1.482,1.1,1.1,0,0,1,1.345-.993C1827.114,1977.4,1827.346,1977.973,1827.448,1978.539Z" transform="translate(-191.963 -72.436)"/><path class="a" d="M1627.823,1980.307c-.129.8-.574,1.327-1.425,1.25a1.257,1.257,0,1,1,.243-2.5C1627.386,1979.1,1627.732,1979.583,1627.823,1980.307Z" transform="translate(-101.034 -73.241)"/><path class="a" d="M1834.123,1973.056c.961,0,1.511.432,1.555,1.256a1.158,1.158,0,0,1-1.137,1.256,1.234,1.234,0,0,1-1.425-1.255A1.154,1.154,0,0,1,1834.123,1973.056Z" transform="translate(-195.66 -70.512)"/><path class="a" d="M1673.651,1918.6a1.292,1.292,0,0,1-1.333,1.335,1.11,1.11,0,0,1-1.225-1.13,1.239,1.239,0,0,1,1.289-1.387C1673.079,1917.387,1673.479,1917.911,1673.651,1918.6Z" transform="translate(-121.91 -45.185)"/><path class="a" d="M1678.984,1928.442a1.162,1.162,0,0,1-1.167,1.213,1.087,1.087,0,0,1-1.24-1.1,1.154,1.154,0,0,1,1.282-1.343C1678.606,1927.229,1678.939,1927.729,1678.984,1928.442Z" transform="translate(-124.406 -49.642)"/><path class="a" d="M1779.661,1930.572c-.137.672-.479,1.216-1.2,1.239a1.246,1.246,0,0,1-1.378-1.31,1.122,1.122,0,0,1,1.15-1.224C1779.105,1929.244,1779.5,1929.8,1779.661,1930.572Z" transform="translate(-170.158 -50.583)"/><path class="a" d="M1773.537,1938.695c-.825-.165-1.339-.634-1.272-1.464a1.13,1.13,0,0,1,1.265-1.11,1.247,1.247,0,0,1,1.24,1.442A1.176,1.176,0,0,1,1773.537,1938.695Z" transform="translate(-167.96 -53.697)"/><path class="a" d="M1769.772,1944.561a1.283,1.283,0,0,1-1.146,1.257,1.25,1.25,0,1,1-.034-2.484A1.279,1.279,0,0,1,1769.772,1944.561Z" transform="translate(-165.666 -56.981)"/><path class="a" d="M1784.547,1922.436c-.181.774-.642,1.291-1.467,1.194a1.13,1.13,0,0,1-1.087-1.258,1.205,1.205,0,0,1,1.418-1.212C1784.123,1921.238,1784.436,1921.763,1784.547,1922.436Z" transform="translate(-172.388 -46.884)"/><path class="a" d="M1619.88,1975.514c-.164.761-.556,1.323-1.419,1.255a1.218,1.218,0,0,1-1.174-1.234,1.2,1.2,0,0,1,1.4-1.247A1.262,1.262,0,0,1,1619.88,1975.514Z" transform="translate(-97.418 -71.071)"/><path class="a" d="M1611.767,1969.092a1.161,1.161,0,0,1,1.209,1.144,1.119,1.119,0,0,1-1.286,1.3,1.1,1.1,0,0,1-1.087-1.249A1.15,1.15,0,0,1,1611.767,1969.092Z" transform="translate(-94.376 -68.707)"/><path class="a" d="M1685.1,1949.1c-.891-.06-1.42-.352-1.445-1.135a1.136,1.136,0,0,1,1.151-1.253,1.06,1.06,0,0,1,1.232,1.126A1.119,1.119,0,0,1,1685.1,1949.1Z" transform="translate(-127.63 -58.519)"/><path class="a" d="M1682.248,1939.931c-.9-.05-1.345-.408-1.394-1.146a1.147,1.147,0,1,1,2.289-.119A1.171,1.171,0,0,1,1682.248,1939.931Z" transform="translate(-126.352 -54.341)"/><path class="a" d="M1819.043,1982.046a1.063,1.063,0,0,1-1.056,1.253,1.016,1.016,0,0,1-1.225-1.059c-.051-.719.221-1.21,1.025-1.231C1818.505,1980.989,1818.978,1981.273,1819.043,1982.046Z" transform="translate(-188.214 -74.131)"/><path class="a" d="M1787.178,1913.051a1.068,1.068,0,0,1-1.246,1c-.768-.042-1.066-.558-1.019-1.278a1.041,1.041,0,0,1,1.225-1.086C1786.9,1911.746,1787.188,1912.255,1787.178,1913.051Z" transform="translate(-173.718 -42.576)"/><path class="a" d="M1845.172,1970.5a1.068,1.068,0,0,1-1.14,1.166,1.042,1.042,0,0,1-1.14-1.16,1.1,1.1,0,0,1,1.132-1.2C1844.75,1969.308,1845.1,1969.8,1845.172,1970.5Z" transform="translate(-200.111 -68.805)"/></g></svg>